<mxfile host="app.diagrams.net" modified="2024-02-11T15:30:26.218Z" agent="Mozilla/5.0 (Windows NT 10.0; Win64; x64) AppleWebKit/537.36 (KHTML, like Gecko) Chrome/120.0.0.0 YaBrowser/24.1.0.0 Safari/537.36" etag="IxH12dC6OQac4ymAZuSl" version="23.1.2" type="device">
  <diagram name="Страница — 1" id="gnq_qnb3r_2Inm63mi1r">
    <mxGraphModel dx="5513" dy="3029" grid="1" gridSize="10" guides="1" tooltips="1" connect="1" arrows="1" fold="1" page="1" pageScale="1" pageWidth="827" pageHeight="1169" background="#FFFFFF" math="0" shadow="0">
      <root>
        <mxCell id="0" />
        <mxCell id="1" parent="0" />
        <mxCell id="oyIsUULw6MFd0Sz0c1CN-6" value="Window Title" style="strokeWidth=1;shadow=0;dashed=0;align=center;html=1;shape=mxgraph.mockup.containers.window;align=left;verticalAlign=top;spacingLeft=8;strokeColor2=#008cff;strokeColor3=#c4c4c4;mainText=;fontSize=17;labelBackgroundColor=none;whiteSpace=wrap;fillColor=#f5f5f5;strokeColor=#666666;gradientDirection=north;fontColor=#333333;" parent="1" vertex="1">
          <mxGeometry x="-1614" y="40" width="747" height="430" as="geometry" />
        </mxCell>
        <mxCell id="kb-qz8heGwgcF6jkPhP3-60" value="" style="group" vertex="1" connectable="0" parent="1">
          <mxGeometry x="-1534" y="80" width="660" height="380" as="geometry" />
        </mxCell>
        <mxCell id="oyIsUULw6MFd0Sz0c1CN-19" value="" style="strokeWidth=1;shadow=0;dashed=0;align=right;html=1;shape=mxgraph.mockup.buttons.multiButton;fillColor=#CCCCCC;strokeColor=#666666;mainText=;subText=;" parent="kb-qz8heGwgcF6jkPhP3-60" vertex="1">
          <mxGeometry width="660" height="380" as="geometry" />
        </mxCell>
        <mxCell id="kb-qz8heGwgcF6jkPhP3-44" value="" style="shape=ext;double=1;rounded=1;whiteSpace=wrap;html=1;opacity=50;strokeColor=none;" vertex="1" parent="kb-qz8heGwgcF6jkPhP3-60">
          <mxGeometry x="649.1803278688525" y="10.27027027027027" width="10.819672131147541" height="82.16216216216216" as="geometry" />
        </mxCell>
        <mxCell id="kb-qz8heGwgcF6jkPhP3-45" value="" style="endArrow=classic;html=1;rounded=0;exitX=0.5;exitY=1;exitDx=0;exitDy=0;" edge="1" parent="kb-qz8heGwgcF6jkPhP3-60" source="kb-qz8heGwgcF6jkPhP3-44">
          <mxGeometry width="50" height="50" relative="1" as="geometry">
            <mxPoint x="681.6393442622951" y="123.24324324324324" as="sourcePoint" />
            <mxPoint x="654.5901639344263" y="143.78378378378378" as="targetPoint" />
          </mxGeometry>
        </mxCell>
        <mxCell id="kb-qz8heGwgcF6jkPhP3-100" value="" style="group" vertex="1" connectable="0" parent="kb-qz8heGwgcF6jkPhP3-60">
          <mxGeometry x="30" y="10.27" width="613.77" height="61.62" as="geometry" />
        </mxCell>
        <mxCell id="kb-qz8heGwgcF6jkPhP3-101" value="" style="verticalLabelPosition=bottom;verticalAlign=top;html=1;shape=mxgraph.basic.diag_round_rect;dx=6;whiteSpace=wrap;fillColor=#999999;fontColor=#333333;strokeColor=#666666;" vertex="1" parent="kb-qz8heGwgcF6jkPhP3-100">
          <mxGeometry width="613.77" height="61.62" as="geometry" />
        </mxCell>
        <mxCell id="kb-qz8heGwgcF6jkPhP3-102" value="описание задачи" style="strokeWidth=1;shadow=0;dashed=0;align=left;html=1;shape=mxgraph.mockup.anchor;fontSize=15;fontColor=#FFFFFF;fontStyle=1;whiteSpace=wrap;verticalAlign=top;" vertex="1" parent="kb-qz8heGwgcF6jkPhP3-100">
          <mxGeometry x="92.0655" width="470.55699999999996" height="61.62" as="geometry" />
        </mxCell>
        <mxCell id="kb-qz8heGwgcF6jkPhP3-103" value="" style="endArrow=none;dashed=1;html=1;rounded=0;entryX=0.103;entryY=0;entryDx=0;entryDy=0;entryPerimeter=0;exitX=0.104;exitY=0.994;exitDx=0;exitDy=0;exitPerimeter=0;" edge="1" parent="kb-qz8heGwgcF6jkPhP3-100">
          <mxGeometry width="50" height="50" relative="1" as="geometry">
            <mxPoint x="82.44977000000014" y="61.250279999999975" as="sourcePoint" />
            <mxPoint x="81.83600000000023" as="targetPoint" />
          </mxGeometry>
        </mxCell>
        <mxCell id="kb-qz8heGwgcF6jkPhP3-104" value="старт" style="strokeWidth=1;shadow=0;dashed=0;align=left;html=1;shape=mxgraph.mockup.anchor;fontSize=11;fontColor=#FFFFFF;fontStyle=3;whiteSpace=wrap;" vertex="1" parent="kb-qz8heGwgcF6jkPhP3-100">
          <mxGeometry x="10.229499999999998" width="61.376999999999995" height="16.432" as="geometry" />
        </mxCell>
        <mxCell id="kb-qz8heGwgcF6jkPhP3-105" value="&lt;font color=&quot;#ff0000&quot;&gt;дедлайн&lt;/font&gt;" style="strokeWidth=1;shadow=0;dashed=0;align=left;html=1;shape=mxgraph.mockup.anchor;fontSize=12;fontColor=#666666;fontStyle=3;whiteSpace=wrap;" vertex="1" parent="kb-qz8heGwgcF6jkPhP3-100">
          <mxGeometry x="10.229499999999998" y="45.187999999999995" width="61.376999999999995" height="16.432" as="geometry" />
        </mxCell>
        <mxCell id="kb-qz8heGwgcF6jkPhP3-106" value="" style="group" vertex="1" connectable="0" parent="kb-qz8heGwgcF6jkPhP3-100">
          <mxGeometry x="586.8353096238243" y="19.99704131578947" width="19.31259051724138" height="16.942076666666665" as="geometry" />
        </mxCell>
        <mxCell id="kb-qz8heGwgcF6jkPhP3-107" value="" style="rounded=1;whiteSpace=wrap;html=1;fillColor=#333333;strokeColor=#333333;" vertex="1" parent="kb-qz8heGwgcF6jkPhP3-106">
          <mxGeometry y="1.5370766666666693" width="15.34425" height="15.404999999999998" as="geometry" />
        </mxCell>
        <mxCell id="kb-qz8heGwgcF6jkPhP3-108" value="" style="html=1;shadow=0;dashed=0;shape=mxgraph.atlassian.check;strokeColor=#ffffff;strokeWidth=2;sketch=1;hachureGap=4;pointerEvents=0;fontFamily=Architects Daughter;fontSource=https%3A%2F%2Ffonts.googleapis.com%2Fcss%3Ffamily%3DArchitects%2BDaughter;fontSize=20;" vertex="1" parent="kb-qz8heGwgcF6jkPhP3-106">
          <mxGeometry x="2.3810043103448275" y="5.134999999999999" width="10.582241379310345" height="8.215999999999998" as="geometry">
            <mxPoint x="6" y="-5" as="offset" />
          </mxGeometry>
        </mxCell>
        <mxCell id="kb-qz8heGwgcF6jkPhP3-30" value="" style="group" vertex="1" connectable="0" parent="kb-qz8heGwgcF6jkPhP3-60">
          <mxGeometry x="30" y="80" width="613.77" height="61.62" as="geometry" />
        </mxCell>
        <mxCell id="kb-qz8heGwgcF6jkPhP3-31" value="" style="verticalLabelPosition=bottom;verticalAlign=top;html=1;shape=mxgraph.basic.diag_round_rect;dx=6;whiteSpace=wrap;fillColor=#999999;fontColor=#333333;strokeColor=#666666;" vertex="1" parent="kb-qz8heGwgcF6jkPhP3-30">
          <mxGeometry width="613.77" height="61.62" as="geometry" />
        </mxCell>
        <mxCell id="kb-qz8heGwgcF6jkPhP3-32" value="описание задачи" style="strokeWidth=1;shadow=0;dashed=0;align=left;html=1;shape=mxgraph.mockup.anchor;fontSize=15;fontColor=#FFFFFF;fontStyle=1;whiteSpace=wrap;verticalAlign=top;" vertex="1" parent="kb-qz8heGwgcF6jkPhP3-30">
          <mxGeometry x="92.0655" width="470.55699999999996" height="61.62" as="geometry" />
        </mxCell>
        <mxCell id="kb-qz8heGwgcF6jkPhP3-33" value="" style="endArrow=none;dashed=1;html=1;rounded=0;entryX=0.103;entryY=0;entryDx=0;entryDy=0;entryPerimeter=0;exitX=0.104;exitY=0.994;exitDx=0;exitDy=0;exitPerimeter=0;" edge="1" parent="kb-qz8heGwgcF6jkPhP3-30">
          <mxGeometry width="50" height="50" relative="1" as="geometry">
            <mxPoint x="82.44977000000014" y="61.250279999999975" as="sourcePoint" />
            <mxPoint x="81.83600000000023" as="targetPoint" />
          </mxGeometry>
        </mxCell>
        <mxCell id="kb-qz8heGwgcF6jkPhP3-35" value="старт" style="strokeWidth=1;shadow=0;dashed=0;align=left;html=1;shape=mxgraph.mockup.anchor;fontSize=11;fontColor=#FFFFFF;fontStyle=3;whiteSpace=wrap;" vertex="1" parent="kb-qz8heGwgcF6jkPhP3-30">
          <mxGeometry x="10.229499999999998" width="61.376999999999995" height="16.432" as="geometry" />
        </mxCell>
        <mxCell id="kb-qz8heGwgcF6jkPhP3-36" value="&lt;font color=&quot;#ff0000&quot;&gt;дедлайн&lt;/font&gt;" style="strokeWidth=1;shadow=0;dashed=0;align=left;html=1;shape=mxgraph.mockup.anchor;fontSize=12;fontColor=#666666;fontStyle=3;whiteSpace=wrap;fillColor=#FFB570;" vertex="1" parent="kb-qz8heGwgcF6jkPhP3-30">
          <mxGeometry x="10.229499999999998" y="45.187999999999995" width="61.376999999999995" height="16.432" as="geometry" />
        </mxCell>
        <mxCell id="kb-qz8heGwgcF6jkPhP3-97" value="" style="group" vertex="1" connectable="0" parent="kb-qz8heGwgcF6jkPhP3-30">
          <mxGeometry x="586.8353096238243" y="22.34319578947376" width="19.31259051724138" height="16.942076666666665" as="geometry" />
        </mxCell>
        <mxCell id="kb-qz8heGwgcF6jkPhP3-98" value="" style="rounded=1;whiteSpace=wrap;html=1;fillColor=#333333;strokeColor=#333333;" vertex="1" parent="kb-qz8heGwgcF6jkPhP3-97">
          <mxGeometry y="1.5370766666666693" width="15.34425" height="15.404999999999998" as="geometry" />
        </mxCell>
        <mxCell id="kb-qz8heGwgcF6jkPhP3-110" value="" style="group" vertex="1" connectable="0" parent="kb-qz8heGwgcF6jkPhP3-60">
          <mxGeometry x="30" y="150" width="613.77" height="61.62" as="geometry" />
        </mxCell>
        <mxCell id="kb-qz8heGwgcF6jkPhP3-111" value="" style="verticalLabelPosition=bottom;verticalAlign=top;html=1;shape=mxgraph.basic.diag_round_rect;dx=6;whiteSpace=wrap;fillColor=#999999;fontColor=#333333;strokeColor=#666666;" vertex="1" parent="kb-qz8heGwgcF6jkPhP3-110">
          <mxGeometry width="613.77" height="61.62" as="geometry" />
        </mxCell>
        <mxCell id="kb-qz8heGwgcF6jkPhP3-112" value="описание задачи" style="strokeWidth=1;shadow=0;dashed=0;align=left;html=1;shape=mxgraph.mockup.anchor;fontSize=15;fontColor=#FFFFFF;fontStyle=1;whiteSpace=wrap;verticalAlign=top;" vertex="1" parent="kb-qz8heGwgcF6jkPhP3-110">
          <mxGeometry x="92.0655" width="470.55699999999996" height="61.62" as="geometry" />
        </mxCell>
        <mxCell id="kb-qz8heGwgcF6jkPhP3-113" value="" style="endArrow=none;dashed=1;html=1;rounded=0;entryX=0.103;entryY=0;entryDx=0;entryDy=0;entryPerimeter=0;exitX=0.104;exitY=0.994;exitDx=0;exitDy=0;exitPerimeter=0;" edge="1" parent="kb-qz8heGwgcF6jkPhP3-110">
          <mxGeometry width="50" height="50" relative="1" as="geometry">
            <mxPoint x="82.44977000000014" y="61.250279999999975" as="sourcePoint" />
            <mxPoint x="81.83600000000023" as="targetPoint" />
          </mxGeometry>
        </mxCell>
        <mxCell id="kb-qz8heGwgcF6jkPhP3-114" value="старт" style="strokeWidth=1;shadow=0;dashed=0;align=left;html=1;shape=mxgraph.mockup.anchor;fontSize=11;fontColor=#FFFFFF;fontStyle=3;whiteSpace=wrap;" vertex="1" parent="kb-qz8heGwgcF6jkPhP3-110">
          <mxGeometry x="10.229499999999998" width="61.376999999999995" height="16.432" as="geometry" />
        </mxCell>
        <mxCell id="kb-qz8heGwgcF6jkPhP3-115" value="&lt;font color=&quot;#ff0000&quot;&gt;дедлайн&lt;/font&gt;" style="strokeWidth=1;shadow=0;dashed=0;align=left;html=1;shape=mxgraph.mockup.anchor;fontSize=12;fontColor=#666666;fontStyle=3;whiteSpace=wrap;fillColor=#FFB570;" vertex="1" parent="kb-qz8heGwgcF6jkPhP3-110">
          <mxGeometry x="10.229499999999998" y="45.187999999999995" width="61.376999999999995" height="16.432" as="geometry" />
        </mxCell>
        <mxCell id="kb-qz8heGwgcF6jkPhP3-116" value="" style="group" vertex="1" connectable="0" parent="kb-qz8heGwgcF6jkPhP3-110">
          <mxGeometry x="586.8353096238243" y="22.34319578947376" width="19.31259051724138" height="16.942076666666665" as="geometry" />
        </mxCell>
        <mxCell id="kb-qz8heGwgcF6jkPhP3-117" value="" style="rounded=1;whiteSpace=wrap;html=1;fillColor=#333333;strokeColor=#333333;" vertex="1" parent="kb-qz8heGwgcF6jkPhP3-116">
          <mxGeometry y="1.5370766666666693" width="15.34425" height="15.404999999999998" as="geometry" />
        </mxCell>
        <mxCell id="kb-qz8heGwgcF6jkPhP3-118" value="" style="group" vertex="1" connectable="0" parent="kb-qz8heGwgcF6jkPhP3-60">
          <mxGeometry x="30" y="220" width="613.77" height="61.62" as="geometry" />
        </mxCell>
        <mxCell id="kb-qz8heGwgcF6jkPhP3-119" value="" style="verticalLabelPosition=bottom;verticalAlign=top;html=1;shape=mxgraph.basic.diag_round_rect;dx=6;whiteSpace=wrap;fillColor=#999999;fontColor=#333333;strokeColor=#666666;" vertex="1" parent="kb-qz8heGwgcF6jkPhP3-118">
          <mxGeometry width="613.77" height="61.62" as="geometry" />
        </mxCell>
        <mxCell id="kb-qz8heGwgcF6jkPhP3-120" value="описание задачи" style="strokeWidth=1;shadow=0;dashed=0;align=left;html=1;shape=mxgraph.mockup.anchor;fontSize=15;fontColor=#FFFFFF;fontStyle=1;whiteSpace=wrap;verticalAlign=top;" vertex="1" parent="kb-qz8heGwgcF6jkPhP3-118">
          <mxGeometry x="92.0655" width="470.55699999999996" height="61.62" as="geometry" />
        </mxCell>
        <mxCell id="kb-qz8heGwgcF6jkPhP3-121" value="" style="endArrow=none;dashed=1;html=1;rounded=0;entryX=0.103;entryY=0;entryDx=0;entryDy=0;entryPerimeter=0;exitX=0.104;exitY=0.994;exitDx=0;exitDy=0;exitPerimeter=0;" edge="1" parent="kb-qz8heGwgcF6jkPhP3-118">
          <mxGeometry width="50" height="50" relative="1" as="geometry">
            <mxPoint x="82.44977000000014" y="61.250279999999975" as="sourcePoint" />
            <mxPoint x="81.83600000000023" as="targetPoint" />
          </mxGeometry>
        </mxCell>
        <mxCell id="kb-qz8heGwgcF6jkPhP3-122" value="старт" style="strokeWidth=1;shadow=0;dashed=0;align=left;html=1;shape=mxgraph.mockup.anchor;fontSize=11;fontColor=#FFFFFF;fontStyle=3;whiteSpace=wrap;" vertex="1" parent="kb-qz8heGwgcF6jkPhP3-118">
          <mxGeometry x="10.229499999999998" width="61.376999999999995" height="16.432" as="geometry" />
        </mxCell>
        <mxCell id="kb-qz8heGwgcF6jkPhP3-123" value="&lt;font color=&quot;#ff0000&quot;&gt;дедлайн&lt;/font&gt;" style="strokeWidth=1;shadow=0;dashed=0;align=left;html=1;shape=mxgraph.mockup.anchor;fontSize=12;fontColor=#666666;fontStyle=3;whiteSpace=wrap;fillColor=#FFB570;" vertex="1" parent="kb-qz8heGwgcF6jkPhP3-118">
          <mxGeometry x="10.229499999999998" y="45.187999999999995" width="61.376999999999995" height="16.432" as="geometry" />
        </mxCell>
        <mxCell id="kb-qz8heGwgcF6jkPhP3-124" value="" style="group" vertex="1" connectable="0" parent="kb-qz8heGwgcF6jkPhP3-118">
          <mxGeometry x="586.8353096238243" y="22.34319578947376" width="19.31259051724138" height="16.942076666666665" as="geometry" />
        </mxCell>
        <mxCell id="kb-qz8heGwgcF6jkPhP3-125" value="" style="rounded=1;whiteSpace=wrap;html=1;fillColor=#333333;strokeColor=#333333;" vertex="1" parent="kb-qz8heGwgcF6jkPhP3-124">
          <mxGeometry y="1.5370766666666693" width="15.34425" height="15.404999999999998" as="geometry" />
        </mxCell>
        <mxCell id="kb-qz8heGwgcF6jkPhP3-126" value="" style="html=1;verticalLabelPosition=bottom;labelBackgroundColor=#ffffff;verticalAlign=top;shadow=0;dashed=0;strokeWidth=2;shape=mxgraph.ios7.misc.circle;" vertex="1" parent="kb-qz8heGwgcF6jkPhP3-60">
          <mxGeometry x="5" y="30" width="19.73" height="19.73" as="geometry" />
        </mxCell>
        <mxCell id="kb-qz8heGwgcF6jkPhP3-127" value="" style="html=1;verticalLabelPosition=bottom;labelBackgroundColor=#ffffff;verticalAlign=top;shadow=0;dashed=0;strokeWidth=2;shape=mxgraph.ios7.misc.circle;" vertex="1" parent="kb-qz8heGwgcF6jkPhP3-60">
          <mxGeometry x="5" y="100.95000000000005" width="19.73" height="19.73" as="geometry" />
        </mxCell>
        <mxCell id="kb-qz8heGwgcF6jkPhP3-128" value="" style="html=1;verticalLabelPosition=bottom;labelBackgroundColor=#ffffff;verticalAlign=top;shadow=0;dashed=0;strokeWidth=2;shape=mxgraph.ios7.misc.circle;" vertex="1" parent="kb-qz8heGwgcF6jkPhP3-60">
          <mxGeometry x="5" y="170.94" width="19.73" height="19.73" as="geometry" />
        </mxCell>
        <mxCell id="kb-qz8heGwgcF6jkPhP3-129" value="" style="html=1;verticalLabelPosition=bottom;labelBackgroundColor=#ffffff;verticalAlign=top;shadow=0;dashed=0;strokeWidth=2;shape=mxgraph.ios7.misc.circle;" vertex="1" parent="kb-qz8heGwgcF6jkPhP3-60">
          <mxGeometry x="5" y="240.94000000000005" width="19.73" height="19.73" as="geometry" />
        </mxCell>
        <mxCell id="kb-qz8heGwgcF6jkPhP3-69" value="" style="html=1;verticalLabelPosition=bottom;align=center;labelBackgroundColor=#ffffff;verticalAlign=top;strokeWidth=2;strokeColor=#00070D;shadow=0;dashed=0;shape=mxgraph.ios7.icons.delete;opacity=20;" vertex="1" parent="1">
          <mxGeometry x="-1594" y="320" width="40" height="40" as="geometry" />
        </mxCell>
        <mxCell id="kb-qz8heGwgcF6jkPhP3-236" value="" style="edgeStyle=orthogonalEdgeStyle;rounded=0;orthogonalLoop=1;jettySize=auto;html=1;entryX=0.479;entryY=0.008;entryDx=0;entryDy=0;entryPerimeter=0;" edge="1" parent="1" source="kb-qz8heGwgcF6jkPhP3-70" target="kb-qz8heGwgcF6jkPhP3-227">
          <mxGeometry relative="1" as="geometry">
            <Array as="points">
              <mxPoint x="-1680" y="110" />
              <mxPoint x="-1680" y="-20" />
              <mxPoint x="-297" y="-20" />
            </Array>
          </mxGeometry>
        </mxCell>
        <mxCell id="kb-qz8heGwgcF6jkPhP3-70" value="" style="html=1;verticalLabelPosition=bottom;align=center;labelBackgroundColor=#ffffff;verticalAlign=top;strokeWidth=2;strokeColor=#000000;shadow=0;dashed=0;shape=mxgraph.ios7.icons.add;" vertex="1" parent="1">
          <mxGeometry x="-1594" y="90" width="40" height="40" as="geometry" />
        </mxCell>
        <mxCell id="kb-qz8heGwgcF6jkPhP3-87" value="" style="group;opacity=20;" vertex="1" connectable="0" parent="1">
          <mxGeometry x="-1594" y="160" width="40" height="40" as="geometry" />
        </mxCell>
        <mxCell id="kb-qz8heGwgcF6jkPhP3-86" value="" style="ellipse;whiteSpace=wrap;html=1;aspect=fixed;strokeWidth=2;opacity=20;" vertex="1" parent="kb-qz8heGwgcF6jkPhP3-87">
          <mxGeometry width="40" height="40" as="geometry" />
        </mxCell>
        <mxCell id="kb-qz8heGwgcF6jkPhP3-83" value="" style="html=1;dashed=0;aspect=fixed;verticalLabelPosition=bottom;verticalAlign=top;align=center;shape=mxgraph.gmdl.edit;strokeColor=none;fillColor=#030303;shadow=0;sketch=0;opacity=20;" vertex="1" parent="kb-qz8heGwgcF6jkPhP3-87">
          <mxGeometry x="10" y="10" width="20" height="20" as="geometry" />
        </mxCell>
        <mxCell id="kb-qz8heGwgcF6jkPhP3-179" value="" style="group" vertex="1" connectable="0" parent="1">
          <mxGeometry x="-1614" y="530" width="747" height="430" as="geometry" />
        </mxCell>
        <mxCell id="kb-qz8heGwgcF6jkPhP3-132" value="Window Title" style="strokeWidth=1;shadow=0;dashed=0;align=center;html=1;shape=mxgraph.mockup.containers.window;align=left;verticalAlign=top;spacingLeft=8;strokeColor2=#008cff;strokeColor3=#c4c4c4;mainText=;fontSize=17;labelBackgroundColor=none;whiteSpace=wrap;fillColor=#f5f5f5;strokeColor=#666666;gradientDirection=north;fontColor=#333333;container=0;" vertex="1" parent="kb-qz8heGwgcF6jkPhP3-179">
          <mxGeometry width="747" height="430" as="geometry" />
        </mxCell>
        <mxCell id="kb-qz8heGwgcF6jkPhP3-174" value="" style="html=1;verticalLabelPosition=bottom;align=center;labelBackgroundColor=#ffffff;verticalAlign=top;strokeWidth=2;strokeColor=#00070D;shadow=0;dashed=0;shape=mxgraph.ios7.icons.delete;container=0;" vertex="1" parent="kb-qz8heGwgcF6jkPhP3-179">
          <mxGeometry x="20" y="280" width="40" height="40" as="geometry" />
        </mxCell>
        <mxCell id="kb-qz8heGwgcF6jkPhP3-175" value="" style="html=1;verticalLabelPosition=bottom;align=center;labelBackgroundColor=#ffffff;verticalAlign=top;strokeWidth=2;strokeColor=#000000;shadow=0;dashed=0;shape=mxgraph.ios7.icons.add;container=0;" vertex="1" parent="kb-qz8heGwgcF6jkPhP3-179">
          <mxGeometry x="20" y="50" width="40" height="40" as="geometry" />
        </mxCell>
        <mxCell id="kb-qz8heGwgcF6jkPhP3-134" value="" style="strokeWidth=1;shadow=0;dashed=0;align=right;html=1;shape=mxgraph.mockup.buttons.multiButton;fillColor=#CCCCCC;strokeColor=#666666;mainText=;subText=;container=0;" vertex="1" parent="kb-qz8heGwgcF6jkPhP3-179">
          <mxGeometry x="80" y="40" width="660" height="380" as="geometry" />
        </mxCell>
        <mxCell id="kb-qz8heGwgcF6jkPhP3-135" value="" style="shape=ext;double=1;rounded=1;whiteSpace=wrap;html=1;opacity=50;strokeColor=none;container=0;" vertex="1" parent="kb-qz8heGwgcF6jkPhP3-179">
          <mxGeometry x="729.1803278688525" y="50.270270270270316" width="10.819672131147541" height="82.16216216216216" as="geometry" />
        </mxCell>
        <mxCell id="kb-qz8heGwgcF6jkPhP3-136" value="" style="endArrow=classic;html=1;rounded=0;exitX=0.5;exitY=1;exitDx=0;exitDy=0;" edge="1" parent="kb-qz8heGwgcF6jkPhP3-179" source="kb-qz8heGwgcF6jkPhP3-135">
          <mxGeometry width="50" height="50" relative="1" as="geometry">
            <mxPoint x="761.6393442622951" y="163.24324324324323" as="sourcePoint" />
            <mxPoint x="734.5901639344263" y="183.78378378378375" as="targetPoint" />
          </mxGeometry>
        </mxCell>
        <mxCell id="kb-qz8heGwgcF6jkPhP3-171" value="" style="html=1;verticalLabelPosition=bottom;labelBackgroundColor=#ffffff;verticalAlign=top;shadow=0;dashed=0;strokeWidth=2;shape=mxgraph.ios7.misc.circle;container=0;" vertex="1" parent="kb-qz8heGwgcF6jkPhP3-179">
          <mxGeometry x="85" y="140.95000000000005" width="19.73" height="19.73" as="geometry" />
        </mxCell>
        <mxCell id="kb-qz8heGwgcF6jkPhP3-172" value="" style="html=1;verticalLabelPosition=bottom;labelBackgroundColor=#ffffff;verticalAlign=top;shadow=0;dashed=0;strokeWidth=2;shape=mxgraph.ios7.misc.circle;container=0;" vertex="1" parent="kb-qz8heGwgcF6jkPhP3-179">
          <mxGeometry x="85" y="210.94000000000005" width="19.73" height="19.73" as="geometry" />
        </mxCell>
        <mxCell id="kb-qz8heGwgcF6jkPhP3-173" value="" style="html=1;verticalLabelPosition=bottom;labelBackgroundColor=#ffffff;verticalAlign=top;shadow=0;dashed=0;strokeWidth=2;shape=mxgraph.ios7.misc.circle;container=0;" vertex="1" parent="kb-qz8heGwgcF6jkPhP3-179">
          <mxGeometry x="85" y="280.94000000000005" width="19.73" height="19.73" as="geometry" />
        </mxCell>
        <mxCell id="kb-qz8heGwgcF6jkPhP3-138" value="" style="verticalLabelPosition=bottom;verticalAlign=top;html=1;shape=mxgraph.basic.diag_round_rect;dx=6;whiteSpace=wrap;fillColor=#999999;fontColor=#333333;strokeColor=#666666;container=0;" vertex="1" parent="kb-qz8heGwgcF6jkPhP3-179">
          <mxGeometry x="110" y="50.26999999999998" width="613.77" height="61.62" as="geometry" />
        </mxCell>
        <mxCell id="kb-qz8heGwgcF6jkPhP3-139" value="описание задачи" style="strokeWidth=1;shadow=0;dashed=0;align=left;html=1;shape=mxgraph.mockup.anchor;fontSize=15;fontColor=#FFFFFF;fontStyle=1;whiteSpace=wrap;verticalAlign=top;container=0;" vertex="1" parent="kb-qz8heGwgcF6jkPhP3-179">
          <mxGeometry x="202.06550000000004" y="50.26999999999998" width="470.55699999999996" height="61.62" as="geometry" />
        </mxCell>
        <mxCell id="kb-qz8heGwgcF6jkPhP3-140" value="" style="endArrow=none;dashed=1;html=1;rounded=0;entryX=0.103;entryY=0;entryDx=0;entryDy=0;entryPerimeter=0;exitX=0.104;exitY=0.994;exitDx=0;exitDy=0;exitPerimeter=0;" edge="1" parent="kb-qz8heGwgcF6jkPhP3-179">
          <mxGeometry width="50" height="50" relative="1" as="geometry">
            <mxPoint x="192.44977000000017" y="111.52027999999996" as="sourcePoint" />
            <mxPoint x="191.83600000000024" y="50.26999999999998" as="targetPoint" />
          </mxGeometry>
        </mxCell>
        <mxCell id="kb-qz8heGwgcF6jkPhP3-141" value="старт" style="strokeWidth=1;shadow=0;dashed=0;align=left;html=1;shape=mxgraph.mockup.anchor;fontSize=11;fontColor=#FFFFFF;fontStyle=3;whiteSpace=wrap;container=0;" vertex="1" parent="kb-qz8heGwgcF6jkPhP3-179">
          <mxGeometry x="120.22950000000003" y="50.26999999999998" width="61.376999999999995" height="16.432" as="geometry" />
        </mxCell>
        <mxCell id="kb-qz8heGwgcF6jkPhP3-142" value="&lt;font color=&quot;#ff0000&quot;&gt;дедлайн&lt;/font&gt;" style="strokeWidth=1;shadow=0;dashed=0;align=left;html=1;shape=mxgraph.mockup.anchor;fontSize=12;fontColor=#666666;fontStyle=3;whiteSpace=wrap;container=0;" vertex="1" parent="kb-qz8heGwgcF6jkPhP3-179">
          <mxGeometry x="120.22950000000003" y="95.45799999999997" width="61.376999999999995" height="16.432" as="geometry" />
        </mxCell>
        <mxCell id="kb-qz8heGwgcF6jkPhP3-144" value="" style="rounded=1;whiteSpace=wrap;html=1;fillColor=#333333;strokeColor=#333333;container=0;" vertex="1" parent="kb-qz8heGwgcF6jkPhP3-179">
          <mxGeometry x="696.8353096238243" y="71.80411798245609" width="15.34425" height="15.404999999999998" as="geometry" />
        </mxCell>
        <mxCell id="kb-qz8heGwgcF6jkPhP3-145" value="" style="html=1;shadow=0;dashed=0;shape=mxgraph.atlassian.check;strokeColor=#ffffff;strokeWidth=2;sketch=1;hachureGap=4;pointerEvents=0;fontFamily=Architects Daughter;fontSource=https%3A%2F%2Ffonts.googleapis.com%2Fcss%3Ffamily%3DArchitects%2BDaughter;fontSize=20;container=0;" vertex="1" parent="kb-qz8heGwgcF6jkPhP3-179">
          <mxGeometry x="699.2163139341691" y="75.40204131578946" width="10.582241379310345" height="8.215999999999998" as="geometry">
            <mxPoint x="6" y="-5" as="offset" />
          </mxGeometry>
        </mxCell>
        <mxCell id="kb-qz8heGwgcF6jkPhP3-147" value="" style="verticalLabelPosition=bottom;verticalAlign=top;html=1;shape=mxgraph.basic.diag_round_rect;dx=6;whiteSpace=wrap;fillColor=#999999;fontColor=#333333;strokeColor=#666666;container=0;" vertex="1" parent="kb-qz8heGwgcF6jkPhP3-179">
          <mxGeometry x="110" y="120" width="613.77" height="61.62" as="geometry" />
        </mxCell>
        <mxCell id="kb-qz8heGwgcF6jkPhP3-148" value="описание задачи" style="strokeWidth=1;shadow=0;dashed=0;align=left;html=1;shape=mxgraph.mockup.anchor;fontSize=15;fontColor=#FFFFFF;fontStyle=1;whiteSpace=wrap;verticalAlign=top;container=0;" vertex="1" parent="kb-qz8heGwgcF6jkPhP3-179">
          <mxGeometry x="202.06550000000004" y="120" width="470.55699999999996" height="61.62" as="geometry" />
        </mxCell>
        <mxCell id="kb-qz8heGwgcF6jkPhP3-149" value="" style="endArrow=none;dashed=1;html=1;rounded=0;entryX=0.103;entryY=0;entryDx=0;entryDy=0;entryPerimeter=0;exitX=0.104;exitY=0.994;exitDx=0;exitDy=0;exitPerimeter=0;" edge="1" parent="kb-qz8heGwgcF6jkPhP3-179">
          <mxGeometry width="50" height="50" relative="1" as="geometry">
            <mxPoint x="192.44977000000017" y="181.25027999999998" as="sourcePoint" />
            <mxPoint x="191.83600000000024" y="120" as="targetPoint" />
          </mxGeometry>
        </mxCell>
        <mxCell id="kb-qz8heGwgcF6jkPhP3-150" value="старт" style="strokeWidth=1;shadow=0;dashed=0;align=left;html=1;shape=mxgraph.mockup.anchor;fontSize=11;fontColor=#FFFFFF;fontStyle=3;whiteSpace=wrap;container=0;" vertex="1" parent="kb-qz8heGwgcF6jkPhP3-179">
          <mxGeometry x="120.22950000000003" y="120" width="61.376999999999995" height="16.432" as="geometry" />
        </mxCell>
        <mxCell id="kb-qz8heGwgcF6jkPhP3-151" value="&lt;font color=&quot;#ff0000&quot;&gt;дедлайн&lt;/font&gt;" style="strokeWidth=1;shadow=0;dashed=0;align=left;html=1;shape=mxgraph.mockup.anchor;fontSize=12;fontColor=#666666;fontStyle=3;whiteSpace=wrap;fillColor=#FFB570;container=0;" vertex="1" parent="kb-qz8heGwgcF6jkPhP3-179">
          <mxGeometry x="120.22950000000003" y="165.188" width="61.376999999999995" height="16.432" as="geometry" />
        </mxCell>
        <mxCell id="kb-qz8heGwgcF6jkPhP3-153" value="" style="rounded=1;whiteSpace=wrap;html=1;fillColor=#333333;strokeColor=#333333;container=0;" vertex="1" parent="kb-qz8heGwgcF6jkPhP3-179">
          <mxGeometry x="696.8353096238243" y="143.88027245614035" width="15.34425" height="15.404999999999998" as="geometry" />
        </mxCell>
        <mxCell id="kb-qz8heGwgcF6jkPhP3-155" value="" style="verticalLabelPosition=bottom;verticalAlign=top;html=1;shape=mxgraph.basic.diag_round_rect;dx=6;whiteSpace=wrap;fillColor=#999999;fontColor=#333333;strokeColor=#666666;container=0;" vertex="1" parent="kb-qz8heGwgcF6jkPhP3-179">
          <mxGeometry x="110" y="190" width="613.77" height="61.62" as="geometry" />
        </mxCell>
        <mxCell id="kb-qz8heGwgcF6jkPhP3-156" value="описание задачи" style="strokeWidth=1;shadow=0;dashed=0;align=left;html=1;shape=mxgraph.mockup.anchor;fontSize=15;fontColor=#FFFFFF;fontStyle=1;whiteSpace=wrap;verticalAlign=top;container=0;" vertex="1" parent="kb-qz8heGwgcF6jkPhP3-179">
          <mxGeometry x="202.06550000000004" y="190" width="470.55699999999996" height="61.62" as="geometry" />
        </mxCell>
        <mxCell id="kb-qz8heGwgcF6jkPhP3-157" value="" style="endArrow=none;dashed=1;html=1;rounded=0;entryX=0.103;entryY=0;entryDx=0;entryDy=0;entryPerimeter=0;exitX=0.104;exitY=0.994;exitDx=0;exitDy=0;exitPerimeter=0;" edge="1" parent="kb-qz8heGwgcF6jkPhP3-179">
          <mxGeometry width="50" height="50" relative="1" as="geometry">
            <mxPoint x="192.44977000000017" y="251.25027999999998" as="sourcePoint" />
            <mxPoint x="191.83600000000024" y="190" as="targetPoint" />
          </mxGeometry>
        </mxCell>
        <mxCell id="kb-qz8heGwgcF6jkPhP3-158" value="старт" style="strokeWidth=1;shadow=0;dashed=0;align=left;html=1;shape=mxgraph.mockup.anchor;fontSize=11;fontColor=#FFFFFF;fontStyle=3;whiteSpace=wrap;container=0;" vertex="1" parent="kb-qz8heGwgcF6jkPhP3-179">
          <mxGeometry x="120.22950000000003" y="190" width="61.376999999999995" height="16.432" as="geometry" />
        </mxCell>
        <mxCell id="kb-qz8heGwgcF6jkPhP3-159" value="&lt;font color=&quot;#ff0000&quot;&gt;дедлайн&lt;/font&gt;" style="strokeWidth=1;shadow=0;dashed=0;align=left;html=1;shape=mxgraph.mockup.anchor;fontSize=12;fontColor=#666666;fontStyle=3;whiteSpace=wrap;fillColor=#FFB570;container=0;" vertex="1" parent="kb-qz8heGwgcF6jkPhP3-179">
          <mxGeometry x="120.22950000000003" y="235.188" width="61.376999999999995" height="16.432" as="geometry" />
        </mxCell>
        <mxCell id="kb-qz8heGwgcF6jkPhP3-161" value="" style="rounded=1;whiteSpace=wrap;html=1;fillColor=#333333;strokeColor=#333333;container=0;" vertex="1" parent="kb-qz8heGwgcF6jkPhP3-179">
          <mxGeometry x="696.8353096238243" y="213.88027245614035" width="15.34425" height="15.404999999999998" as="geometry" />
        </mxCell>
        <mxCell id="kb-qz8heGwgcF6jkPhP3-163" value="" style="verticalLabelPosition=bottom;verticalAlign=top;html=1;shape=mxgraph.basic.diag_round_rect;dx=6;whiteSpace=wrap;fillColor=#999999;fontColor=#333333;strokeColor=#666666;container=0;" vertex="1" parent="kb-qz8heGwgcF6jkPhP3-179">
          <mxGeometry x="110" y="260" width="613.77" height="61.62" as="geometry" />
        </mxCell>
        <mxCell id="kb-qz8heGwgcF6jkPhP3-164" value="описание задачи" style="strokeWidth=1;shadow=0;dashed=0;align=left;html=1;shape=mxgraph.mockup.anchor;fontSize=15;fontColor=#FFFFFF;fontStyle=1;whiteSpace=wrap;verticalAlign=top;container=0;" vertex="1" parent="kb-qz8heGwgcF6jkPhP3-179">
          <mxGeometry x="202.06550000000004" y="260" width="470.55699999999996" height="61.62" as="geometry" />
        </mxCell>
        <mxCell id="kb-qz8heGwgcF6jkPhP3-165" value="" style="endArrow=none;dashed=1;html=1;rounded=0;entryX=0.103;entryY=0;entryDx=0;entryDy=0;entryPerimeter=0;exitX=0.104;exitY=0.994;exitDx=0;exitDy=0;exitPerimeter=0;" edge="1" parent="kb-qz8heGwgcF6jkPhP3-179">
          <mxGeometry width="50" height="50" relative="1" as="geometry">
            <mxPoint x="192.44977000000017" y="321.25028" as="sourcePoint" />
            <mxPoint x="191.83600000000024" y="260" as="targetPoint" />
          </mxGeometry>
        </mxCell>
        <mxCell id="kb-qz8heGwgcF6jkPhP3-166" value="старт" style="strokeWidth=1;shadow=0;dashed=0;align=left;html=1;shape=mxgraph.mockup.anchor;fontSize=11;fontColor=#FFFFFF;fontStyle=3;whiteSpace=wrap;container=0;" vertex="1" parent="kb-qz8heGwgcF6jkPhP3-179">
          <mxGeometry x="120.22950000000003" y="260" width="61.376999999999995" height="16.432" as="geometry" />
        </mxCell>
        <mxCell id="kb-qz8heGwgcF6jkPhP3-167" value="&lt;font color=&quot;#ff0000&quot;&gt;дедлайн&lt;/font&gt;" style="strokeWidth=1;shadow=0;dashed=0;align=left;html=1;shape=mxgraph.mockup.anchor;fontSize=12;fontColor=#666666;fontStyle=3;whiteSpace=wrap;fillColor=#FFB570;container=0;" vertex="1" parent="kb-qz8heGwgcF6jkPhP3-179">
          <mxGeometry x="120.22950000000003" y="305.188" width="61.376999999999995" height="16.432" as="geometry" />
        </mxCell>
        <mxCell id="kb-qz8heGwgcF6jkPhP3-169" value="" style="rounded=1;whiteSpace=wrap;html=1;fillColor=#333333;strokeColor=#333333;container=0;" vertex="1" parent="kb-qz8heGwgcF6jkPhP3-179">
          <mxGeometry x="696.8353096238243" y="283.88027245614035" width="15.34425" height="15.404999999999998" as="geometry" />
        </mxCell>
        <mxCell id="kb-qz8heGwgcF6jkPhP3-177" value="" style="ellipse;whiteSpace=wrap;html=1;aspect=fixed;strokeWidth=2;container=0;" vertex="1" parent="kb-qz8heGwgcF6jkPhP3-179">
          <mxGeometry x="20" y="120" width="40" height="40" as="geometry" />
        </mxCell>
        <mxCell id="kb-qz8heGwgcF6jkPhP3-178" value="" style="html=1;dashed=0;aspect=fixed;verticalLabelPosition=bottom;verticalAlign=top;align=center;shape=mxgraph.gmdl.edit;strokeColor=none;fillColor=#030303;shadow=0;sketch=0;container=0;" vertex="1" parent="kb-qz8heGwgcF6jkPhP3-179">
          <mxGeometry x="30" y="130" width="20" height="20" as="geometry" />
        </mxCell>
        <mxCell id="kb-qz8heGwgcF6jkPhP3-181" value="" style="ellipse;html=1;shape=endState;fillColor=strokeColor;" vertex="1" parent="kb-qz8heGwgcF6jkPhP3-179">
          <mxGeometry x="83.36" y="67" width="23" height="23" as="geometry" />
        </mxCell>
        <mxCell id="kb-qz8heGwgcF6jkPhP3-183" value="" style="group" vertex="1" connectable="0" parent="1">
          <mxGeometry x="-1614" y="1030" width="747" height="430" as="geometry" />
        </mxCell>
        <mxCell id="kb-qz8heGwgcF6jkPhP3-184" value="Window Title" style="strokeWidth=1;shadow=0;dashed=0;align=center;html=1;shape=mxgraph.mockup.containers.window;align=left;verticalAlign=top;spacingLeft=8;strokeColor2=#008cff;strokeColor3=#c4c4c4;mainText=;fontSize=17;labelBackgroundColor=none;whiteSpace=wrap;fillColor=#f5f5f5;strokeColor=#666666;gradientDirection=north;fontColor=#333333;container=0;" vertex="1" parent="kb-qz8heGwgcF6jkPhP3-183">
          <mxGeometry width="747" height="430" as="geometry" />
        </mxCell>
        <mxCell id="kb-qz8heGwgcF6jkPhP3-185" value="" style="html=1;verticalLabelPosition=bottom;align=center;labelBackgroundColor=#ffffff;verticalAlign=top;strokeWidth=2;strokeColor=#00070D;shadow=0;dashed=0;shape=mxgraph.ios7.icons.delete;container=0;" vertex="1" parent="kb-qz8heGwgcF6jkPhP3-183">
          <mxGeometry x="20" y="280" width="40" height="40" as="geometry" />
        </mxCell>
        <mxCell id="kb-qz8heGwgcF6jkPhP3-186" value="" style="html=1;verticalLabelPosition=bottom;align=center;labelBackgroundColor=#ffffff;verticalAlign=top;strokeWidth=2;strokeColor=#000000;shadow=0;dashed=0;shape=mxgraph.ios7.icons.add;container=0;" vertex="1" parent="kb-qz8heGwgcF6jkPhP3-183">
          <mxGeometry x="20" y="50" width="40" height="40" as="geometry" />
        </mxCell>
        <mxCell id="kb-qz8heGwgcF6jkPhP3-187" value="" style="strokeWidth=1;shadow=0;dashed=0;align=right;html=1;shape=mxgraph.mockup.buttons.multiButton;fillColor=#CCCCCC;strokeColor=#666666;mainText=;subText=;container=0;" vertex="1" parent="kb-qz8heGwgcF6jkPhP3-183">
          <mxGeometry x="80" y="40" width="660" height="380" as="geometry" />
        </mxCell>
        <mxCell id="kb-qz8heGwgcF6jkPhP3-188" value="" style="shape=ext;double=1;rounded=1;whiteSpace=wrap;html=1;opacity=50;strokeColor=none;container=0;" vertex="1" parent="kb-qz8heGwgcF6jkPhP3-183">
          <mxGeometry x="729.1803278688525" y="50.270270270270316" width="10.819672131147541" height="82.16216216216216" as="geometry" />
        </mxCell>
        <mxCell id="kb-qz8heGwgcF6jkPhP3-189" value="" style="endArrow=classic;html=1;rounded=0;exitX=0.5;exitY=1;exitDx=0;exitDy=0;" edge="1" parent="kb-qz8heGwgcF6jkPhP3-183" source="kb-qz8heGwgcF6jkPhP3-188">
          <mxGeometry width="50" height="50" relative="1" as="geometry">
            <mxPoint x="761.6393442622951" y="163.24324324324323" as="sourcePoint" />
            <mxPoint x="734.5901639344263" y="183.78378378378375" as="targetPoint" />
          </mxGeometry>
        </mxCell>
        <mxCell id="kb-qz8heGwgcF6jkPhP3-191" value="" style="html=1;verticalLabelPosition=bottom;labelBackgroundColor=#ffffff;verticalAlign=top;shadow=0;dashed=0;strokeWidth=2;shape=mxgraph.ios7.misc.circle;container=0;" vertex="1" parent="kb-qz8heGwgcF6jkPhP3-183">
          <mxGeometry x="85" y="210.94000000000005" width="19.73" height="19.73" as="geometry" />
        </mxCell>
        <mxCell id="kb-qz8heGwgcF6jkPhP3-192" value="" style="html=1;verticalLabelPosition=bottom;labelBackgroundColor=#ffffff;verticalAlign=top;shadow=0;dashed=0;strokeWidth=2;shape=mxgraph.ios7.misc.circle;container=0;" vertex="1" parent="kb-qz8heGwgcF6jkPhP3-183">
          <mxGeometry x="85" y="280.94000000000005" width="19.73" height="19.73" as="geometry" />
        </mxCell>
        <mxCell id="kb-qz8heGwgcF6jkPhP3-193" value="" style="verticalLabelPosition=bottom;verticalAlign=top;html=1;shape=mxgraph.basic.diag_round_rect;dx=6;whiteSpace=wrap;fillColor=#999999;fontColor=#333333;strokeColor=#666666;container=0;" vertex="1" parent="kb-qz8heGwgcF6jkPhP3-183">
          <mxGeometry x="110" y="50.26999999999998" width="613.77" height="61.62" as="geometry" />
        </mxCell>
        <mxCell id="kb-qz8heGwgcF6jkPhP3-194" value="описание задачи" style="strokeWidth=1;shadow=0;dashed=0;align=left;html=1;shape=mxgraph.mockup.anchor;fontSize=15;fontColor=#FFFFFF;fontStyle=1;whiteSpace=wrap;verticalAlign=top;container=0;" vertex="1" parent="kb-qz8heGwgcF6jkPhP3-183">
          <mxGeometry x="202.06550000000004" y="50.26999999999998" width="470.55699999999996" height="61.62" as="geometry" />
        </mxCell>
        <mxCell id="kb-qz8heGwgcF6jkPhP3-195" value="" style="endArrow=none;dashed=1;html=1;rounded=0;entryX=0.103;entryY=0;entryDx=0;entryDy=0;entryPerimeter=0;exitX=0.104;exitY=0.994;exitDx=0;exitDy=0;exitPerimeter=0;" edge="1" parent="kb-qz8heGwgcF6jkPhP3-183">
          <mxGeometry width="50" height="50" relative="1" as="geometry">
            <mxPoint x="192.44977000000017" y="111.52027999999996" as="sourcePoint" />
            <mxPoint x="191.83600000000024" y="50.26999999999998" as="targetPoint" />
          </mxGeometry>
        </mxCell>
        <mxCell id="kb-qz8heGwgcF6jkPhP3-196" value="старт" style="strokeWidth=1;shadow=0;dashed=0;align=left;html=1;shape=mxgraph.mockup.anchor;fontSize=11;fontColor=#FFFFFF;fontStyle=3;whiteSpace=wrap;container=0;" vertex="1" parent="kb-qz8heGwgcF6jkPhP3-183">
          <mxGeometry x="120.22950000000003" y="50.26999999999998" width="61.376999999999995" height="16.432" as="geometry" />
        </mxCell>
        <mxCell id="kb-qz8heGwgcF6jkPhP3-197" value="&lt;font color=&quot;#ff0000&quot;&gt;дедлайн&lt;/font&gt;" style="strokeWidth=1;shadow=0;dashed=0;align=left;html=1;shape=mxgraph.mockup.anchor;fontSize=12;fontColor=#666666;fontStyle=3;whiteSpace=wrap;container=0;" vertex="1" parent="kb-qz8heGwgcF6jkPhP3-183">
          <mxGeometry x="120.22950000000003" y="95.45799999999997" width="61.376999999999995" height="16.432" as="geometry" />
        </mxCell>
        <mxCell id="kb-qz8heGwgcF6jkPhP3-198" value="" style="rounded=1;whiteSpace=wrap;html=1;fillColor=#333333;strokeColor=#333333;container=0;" vertex="1" parent="kb-qz8heGwgcF6jkPhP3-183">
          <mxGeometry x="696.8353096238243" y="71.80411798245609" width="15.34425" height="15.404999999999998" as="geometry" />
        </mxCell>
        <mxCell id="kb-qz8heGwgcF6jkPhP3-199" value="" style="html=1;shadow=0;dashed=0;shape=mxgraph.atlassian.check;strokeColor=#ffffff;strokeWidth=2;sketch=1;hachureGap=4;pointerEvents=0;fontFamily=Architects Daughter;fontSource=https%3A%2F%2Ffonts.googleapis.com%2Fcss%3Ffamily%3DArchitects%2BDaughter;fontSize=20;container=0;" vertex="1" parent="kb-qz8heGwgcF6jkPhP3-183">
          <mxGeometry x="699.2163139341691" y="75.40204131578946" width="10.582241379310345" height="8.215999999999998" as="geometry">
            <mxPoint x="6" y="-5" as="offset" />
          </mxGeometry>
        </mxCell>
        <mxCell id="kb-qz8heGwgcF6jkPhP3-200" value="" style="verticalLabelPosition=bottom;verticalAlign=top;html=1;shape=mxgraph.basic.diag_round_rect;dx=6;whiteSpace=wrap;fillColor=#999999;fontColor=#333333;strokeColor=#666666;container=0;" vertex="1" parent="kb-qz8heGwgcF6jkPhP3-183">
          <mxGeometry x="110" y="120" width="613.77" height="61.62" as="geometry" />
        </mxCell>
        <mxCell id="kb-qz8heGwgcF6jkPhP3-201" value="описание задачи" style="strokeWidth=1;shadow=0;dashed=0;align=left;html=1;shape=mxgraph.mockup.anchor;fontSize=15;fontColor=#FFFFFF;fontStyle=1;whiteSpace=wrap;verticalAlign=top;container=0;" vertex="1" parent="kb-qz8heGwgcF6jkPhP3-183">
          <mxGeometry x="202.06550000000004" y="120" width="470.55699999999996" height="61.62" as="geometry" />
        </mxCell>
        <mxCell id="kb-qz8heGwgcF6jkPhP3-202" value="" style="endArrow=none;dashed=1;html=1;rounded=0;entryX=0.103;entryY=0;entryDx=0;entryDy=0;entryPerimeter=0;exitX=0.104;exitY=0.994;exitDx=0;exitDy=0;exitPerimeter=0;" edge="1" parent="kb-qz8heGwgcF6jkPhP3-183">
          <mxGeometry width="50" height="50" relative="1" as="geometry">
            <mxPoint x="192.44977000000017" y="181.25027999999998" as="sourcePoint" />
            <mxPoint x="191.83600000000024" y="120" as="targetPoint" />
          </mxGeometry>
        </mxCell>
        <mxCell id="kb-qz8heGwgcF6jkPhP3-203" value="старт" style="strokeWidth=1;shadow=0;dashed=0;align=left;html=1;shape=mxgraph.mockup.anchor;fontSize=11;fontColor=#FFFFFF;fontStyle=3;whiteSpace=wrap;container=0;" vertex="1" parent="kb-qz8heGwgcF6jkPhP3-183">
          <mxGeometry x="120.22950000000003" y="120" width="61.376999999999995" height="16.432" as="geometry" />
        </mxCell>
        <mxCell id="kb-qz8heGwgcF6jkPhP3-204" value="&lt;font color=&quot;#ff0000&quot;&gt;дедлайн&lt;/font&gt;" style="strokeWidth=1;shadow=0;dashed=0;align=left;html=1;shape=mxgraph.mockup.anchor;fontSize=12;fontColor=#666666;fontStyle=3;whiteSpace=wrap;fillColor=#FFB570;container=0;" vertex="1" parent="kb-qz8heGwgcF6jkPhP3-183">
          <mxGeometry x="120.22950000000003" y="165.188" width="61.376999999999995" height="16.432" as="geometry" />
        </mxCell>
        <mxCell id="kb-qz8heGwgcF6jkPhP3-205" value="" style="rounded=1;whiteSpace=wrap;html=1;fillColor=#333333;strokeColor=#333333;container=0;" vertex="1" parent="kb-qz8heGwgcF6jkPhP3-183">
          <mxGeometry x="696.8353096238243" y="143.88027245614035" width="15.34425" height="15.404999999999998" as="geometry" />
        </mxCell>
        <mxCell id="kb-qz8heGwgcF6jkPhP3-206" value="" style="verticalLabelPosition=bottom;verticalAlign=top;html=1;shape=mxgraph.basic.diag_round_rect;dx=6;whiteSpace=wrap;fillColor=#999999;fontColor=#333333;strokeColor=#666666;container=0;" vertex="1" parent="kb-qz8heGwgcF6jkPhP3-183">
          <mxGeometry x="110" y="190" width="613.77" height="61.62" as="geometry" />
        </mxCell>
        <mxCell id="kb-qz8heGwgcF6jkPhP3-207" value="описание задачи" style="strokeWidth=1;shadow=0;dashed=0;align=left;html=1;shape=mxgraph.mockup.anchor;fontSize=15;fontColor=#FFFFFF;fontStyle=1;whiteSpace=wrap;verticalAlign=top;container=0;" vertex="1" parent="kb-qz8heGwgcF6jkPhP3-183">
          <mxGeometry x="202.06550000000004" y="190" width="470.55699999999996" height="61.62" as="geometry" />
        </mxCell>
        <mxCell id="kb-qz8heGwgcF6jkPhP3-208" value="" style="endArrow=none;dashed=1;html=1;rounded=0;entryX=0.103;entryY=0;entryDx=0;entryDy=0;entryPerimeter=0;exitX=0.104;exitY=0.994;exitDx=0;exitDy=0;exitPerimeter=0;" edge="1" parent="kb-qz8heGwgcF6jkPhP3-183">
          <mxGeometry width="50" height="50" relative="1" as="geometry">
            <mxPoint x="192.44977000000017" y="251.25027999999998" as="sourcePoint" />
            <mxPoint x="191.83600000000024" y="190" as="targetPoint" />
          </mxGeometry>
        </mxCell>
        <mxCell id="kb-qz8heGwgcF6jkPhP3-209" value="старт" style="strokeWidth=1;shadow=0;dashed=0;align=left;html=1;shape=mxgraph.mockup.anchor;fontSize=11;fontColor=#FFFFFF;fontStyle=3;whiteSpace=wrap;container=0;" vertex="1" parent="kb-qz8heGwgcF6jkPhP3-183">
          <mxGeometry x="120.22950000000003" y="190" width="61.376999999999995" height="16.432" as="geometry" />
        </mxCell>
        <mxCell id="kb-qz8heGwgcF6jkPhP3-210" value="&lt;font color=&quot;#ff0000&quot;&gt;дедлайн&lt;/font&gt;" style="strokeWidth=1;shadow=0;dashed=0;align=left;html=1;shape=mxgraph.mockup.anchor;fontSize=12;fontColor=#666666;fontStyle=3;whiteSpace=wrap;fillColor=#FFB570;container=0;" vertex="1" parent="kb-qz8heGwgcF6jkPhP3-183">
          <mxGeometry x="120.22950000000003" y="235.188" width="61.376999999999995" height="16.432" as="geometry" />
        </mxCell>
        <mxCell id="kb-qz8heGwgcF6jkPhP3-211" value="" style="rounded=1;whiteSpace=wrap;html=1;fillColor=#333333;strokeColor=#333333;container=0;" vertex="1" parent="kb-qz8heGwgcF6jkPhP3-183">
          <mxGeometry x="696.8353096238243" y="213.88027245614035" width="15.34425" height="15.404999999999998" as="geometry" />
        </mxCell>
        <mxCell id="kb-qz8heGwgcF6jkPhP3-212" value="" style="verticalLabelPosition=bottom;verticalAlign=top;html=1;shape=mxgraph.basic.diag_round_rect;dx=6;whiteSpace=wrap;fillColor=#999999;fontColor=#333333;strokeColor=#666666;container=0;" vertex="1" parent="kb-qz8heGwgcF6jkPhP3-183">
          <mxGeometry x="110" y="260" width="613.77" height="61.62" as="geometry" />
        </mxCell>
        <mxCell id="kb-qz8heGwgcF6jkPhP3-213" value="описание задачи" style="strokeWidth=1;shadow=0;dashed=0;align=left;html=1;shape=mxgraph.mockup.anchor;fontSize=15;fontColor=#FFFFFF;fontStyle=1;whiteSpace=wrap;verticalAlign=top;container=0;" vertex="1" parent="kb-qz8heGwgcF6jkPhP3-183">
          <mxGeometry x="202.06550000000004" y="260" width="470.55699999999996" height="61.62" as="geometry" />
        </mxCell>
        <mxCell id="kb-qz8heGwgcF6jkPhP3-214" value="" style="endArrow=none;dashed=1;html=1;rounded=0;entryX=0.103;entryY=0;entryDx=0;entryDy=0;entryPerimeter=0;exitX=0.104;exitY=0.994;exitDx=0;exitDy=0;exitPerimeter=0;" edge="1" parent="kb-qz8heGwgcF6jkPhP3-183">
          <mxGeometry width="50" height="50" relative="1" as="geometry">
            <mxPoint x="192.44977000000017" y="321.25028" as="sourcePoint" />
            <mxPoint x="191.83600000000024" y="260" as="targetPoint" />
          </mxGeometry>
        </mxCell>
        <mxCell id="kb-qz8heGwgcF6jkPhP3-215" value="старт" style="strokeWidth=1;shadow=0;dashed=0;align=left;html=1;shape=mxgraph.mockup.anchor;fontSize=11;fontColor=#FFFFFF;fontStyle=3;whiteSpace=wrap;container=0;" vertex="1" parent="kb-qz8heGwgcF6jkPhP3-183">
          <mxGeometry x="120.22950000000003" y="260" width="61.376999999999995" height="16.432" as="geometry" />
        </mxCell>
        <mxCell id="kb-qz8heGwgcF6jkPhP3-216" value="&lt;font color=&quot;#ff0000&quot;&gt;дедлайн&lt;/font&gt;" style="strokeWidth=1;shadow=0;dashed=0;align=left;html=1;shape=mxgraph.mockup.anchor;fontSize=12;fontColor=#666666;fontStyle=3;whiteSpace=wrap;fillColor=#FFB570;container=0;" vertex="1" parent="kb-qz8heGwgcF6jkPhP3-183">
          <mxGeometry x="120.22950000000003" y="305.188" width="61.376999999999995" height="16.432" as="geometry" />
        </mxCell>
        <mxCell id="kb-qz8heGwgcF6jkPhP3-217" value="" style="rounded=1;whiteSpace=wrap;html=1;fillColor=#333333;strokeColor=#333333;container=0;" vertex="1" parent="kb-qz8heGwgcF6jkPhP3-183">
          <mxGeometry x="696.8353096238243" y="283.88027245614035" width="15.34425" height="15.404999999999998" as="geometry" />
        </mxCell>
        <mxCell id="kb-qz8heGwgcF6jkPhP3-218" value="" style="ellipse;whiteSpace=wrap;html=1;aspect=fixed;strokeWidth=2;container=0;opacity=20;" vertex="1" parent="kb-qz8heGwgcF6jkPhP3-183">
          <mxGeometry x="20" y="120" width="40" height="40" as="geometry" />
        </mxCell>
        <mxCell id="kb-qz8heGwgcF6jkPhP3-219" value="" style="html=1;dashed=0;aspect=fixed;verticalLabelPosition=bottom;verticalAlign=top;align=center;shape=mxgraph.gmdl.edit;strokeColor=none;fillColor=#030303;shadow=0;sketch=0;container=0;opacity=20;" vertex="1" parent="kb-qz8heGwgcF6jkPhP3-183">
          <mxGeometry x="30" y="130" width="20" height="20" as="geometry" />
        </mxCell>
        <mxCell id="kb-qz8heGwgcF6jkPhP3-220" value="" style="ellipse;html=1;shape=endState;fillColor=strokeColor;" vertex="1" parent="kb-qz8heGwgcF6jkPhP3-183">
          <mxGeometry x="83.36" y="67" width="23" height="23" as="geometry" />
        </mxCell>
        <mxCell id="kb-qz8heGwgcF6jkPhP3-221" value="" style="ellipse;html=1;shape=endState;fillColor=strokeColor;" vertex="1" parent="kb-qz8heGwgcF6jkPhP3-183">
          <mxGeometry x="83.36999999999989" y="139" width="23" height="23" as="geometry" />
        </mxCell>
        <mxCell id="kb-qz8heGwgcF6jkPhP3-237" value="" style="group" vertex="1" connectable="0" parent="1">
          <mxGeometry x="-460" y="40" width="340" height="410" as="geometry" />
        </mxCell>
        <mxCell id="kb-qz8heGwgcF6jkPhP3-227" value="Window Title" style="strokeWidth=1;shadow=0;dashed=0;align=center;html=1;shape=mxgraph.mockup.containers.window;align=left;verticalAlign=top;spacingLeft=8;strokeColor2=#008cff;strokeColor3=#c4c4c4;mainText=;fontSize=17;labelBackgroundColor=none;whiteSpace=wrap;fillColor=#f5f5f5;strokeColor=#666666;gradientDirection=north;fontColor=#333333;" vertex="1" parent="kb-qz8heGwgcF6jkPhP3-237">
          <mxGeometry width="340" height="410" as="geometry" />
        </mxCell>
        <mxCell id="kb-qz8heGwgcF6jkPhP3-222" value="описание задачи" style="shape=rect;fillColor=#BDBDBD;strokeColor=none;fontColor=#000000;fontSize=18;fontStyle=0;verticalAlign=top;spacingBottom=0;spacingLeft=0;shadow=0;whiteSpace=wrap;html=1;align=left;" vertex="1" parent="kb-qz8heGwgcF6jkPhP3-237">
          <mxGeometry y="30" width="340" height="380" as="geometry" />
        </mxCell>
        <mxCell id="kb-qz8heGwgcF6jkPhP3-223" value="" style="shape=rect;fillColor=#000000;strokeColor=none;opacity=25;fontColor=#FFFFFF;fontSize=23;fontStyle=0;verticalAlign=top;spacingBottom=0;spacingLeft=16;spacingTop=17;align=left;resizeWidth=1;whiteSpace=wrap;html=1;" vertex="1" parent="kb-qz8heGwgcF6jkPhP3-222">
          <mxGeometry y="1" width="340" height="138" relative="1" as="geometry">
            <mxPoint y="-138" as="offset" />
          </mxGeometry>
        </mxCell>
        <mxCell id="kb-qz8heGwgcF6jkPhP3-229" value="Сохрнанить" style="strokeWidth=1;shadow=0;dashed=0;align=center;html=1;shape=mxgraph.mockup.buttons.button;strokeColor=#666666;fontColor=#ffffff;mainText=;buttonStyle=round;fontSize=17;fontStyle=1;fillColor=#008cff;whiteSpace=wrap;" vertex="1" parent="kb-qz8heGwgcF6jkPhP3-222">
          <mxGeometry x="19.10112359550562" y="340" width="104.10112359550561" height="24" as="geometry" />
        </mxCell>
        <mxCell id="kb-qz8heGwgcF6jkPhP3-230" value="Отмена" style="strokeWidth=1;shadow=0;dashed=0;align=center;html=1;shape=mxgraph.mockup.buttons.button;strokeColor=#666666;fontColor=#ffffff;mainText=;buttonStyle=round;fontSize=17;fontStyle=1;fillColor=#008cff;whiteSpace=wrap;" vertex="1" parent="kb-qz8heGwgcF6jkPhP3-222">
          <mxGeometry x="200.56179775280899" y="340" width="104.10112359550561" height="24" as="geometry" />
        </mxCell>
        <mxCell id="kb-qz8heGwgcF6jkPhP3-231" value="&lt;font color=&quot;#fafafa&quot;&gt;дата создания&lt;/font&gt;" style="text;fontColor=#808080;fontSize=16;verticalAlign=middle;strokeColor=none;fillColor=none;opacity=50;whiteSpace=wrap;html=1;" vertex="1" parent="kb-qz8heGwgcF6jkPhP3-222">
          <mxGeometry x="9.55056179775281" y="250" width="248.31460674157304" height="30" as="geometry" />
        </mxCell>
        <mxCell id="kb-qz8heGwgcF6jkPhP3-232" value="" style="dashed=0;shape=line;strokeWidth=2;noLabel=1;strokeColor=#0C8CF2;opacity=50;" vertex="1" parent="kb-qz8heGwgcF6jkPhP3-222">
          <mxGeometry x="9.55" y="275" width="310.45" height="10" as="geometry" />
        </mxCell>
        <mxCell id="kb-qz8heGwgcF6jkPhP3-234" value="" style="dashed=0;shape=line;strokeWidth=2;noLabel=1;strokeColor=#0C8CF2;opacity=50;" vertex="1" parent="kb-qz8heGwgcF6jkPhP3-222">
          <mxGeometry x="9.55" y="320" width="310.45" height="10" as="geometry" />
        </mxCell>
        <mxCell id="kb-qz8heGwgcF6jkPhP3-233" value="&lt;font color=&quot;#fafafa&quot;&gt;дата дедлайна&lt;/font&gt;" style="text;fontColor=#808080;fontSize=16;verticalAlign=middle;strokeColor=none;fillColor=none;opacity=50;whiteSpace=wrap;html=1;" vertex="1" parent="kb-qz8heGwgcF6jkPhP3-222">
          <mxGeometry x="9.550561797752813" y="285" width="248.31460674157304" height="30" as="geometry" />
        </mxCell>
        <mxCell id="kb-qz8heGwgcF6jkPhP3-239" value="при нажатии на копку&amp;nbsp;&amp;nbsp;&lt;br&gt;создания задачи,&lt;br&gt;,будет создаваться&amp;nbsp;&lt;br&gt;и вызываться новое&lt;br&gt;окно, в котором пользователь будет&lt;br&gt;заполнять параметры&lt;br&gt;задачи" style="strokeWidth=1;shadow=0;dashed=0;align=center;html=1;shape=mxgraph.mockup.text.stickyNote2;fontColor=#666666;mainText=;fontSize=17;whiteSpace=wrap;fillColor=#ffffcc;strokeColor=#F62E00;" vertex="1" parent="1">
          <mxGeometry x="-1614" y="-310" width="200" height="230" as="geometry" />
        </mxCell>
        <mxCell id="kb-qz8heGwgcF6jkPhP3-240" value="Это главное окно, в котором,&lt;br&gt;&amp;nbsp;по умолчанию, мы видим все&lt;br&gt;&amp;nbsp;наши задачи и можем &lt;br&gt;создать новые" style="strokeWidth=1;shadow=0;dashed=0;align=center;html=1;shape=mxgraph.mockup.text.stickyNote2;fontColor=#666666;mainText=;fontSize=17;whiteSpace=wrap;fillColor=#ffffcc;strokeColor=#F62E00;" vertex="1" parent="1">
          <mxGeometry x="-2150" y="-210" width="310" height="200" as="geometry" />
        </mxCell>
        <mxCell id="kb-qz8heGwgcF6jkPhP3-241" value="при выборе одной задачи, станут&amp;nbsp;&lt;br&gt;доступны кнопки удалить и редактировать&lt;br&gt;задачу" style="strokeWidth=1;shadow=0;dashed=0;align=center;html=1;shape=mxgraph.mockup.text.stickyNote2;fontColor=#666666;mainText=;fontSize=17;whiteSpace=wrap;fillColor=#ffffcc;strokeColor=#F62E00;" vertex="1" parent="1">
          <mxGeometry x="-2110" y="597" width="200" height="200" as="geometry" />
        </mxCell>
        <mxCell id="kb-qz8heGwgcF6jkPhP3-242" value="при выборе двух и&amp;nbsp;&lt;br&gt;более задач кнопка редактировать не&lt;br&gt;будет&amp;nbsp;&lt;br&gt;доступна, а кнопка удалить удалит все выбранные задачи" style="strokeWidth=1;shadow=0;dashed=0;align=center;html=1;shape=mxgraph.mockup.text.stickyNote2;fontColor=#666666;mainText=;fontSize=17;whiteSpace=wrap;fillColor=#ffffcc;strokeColor=#F62E00;" vertex="1" parent="1">
          <mxGeometry x="-2060" y="1065" width="200" height="200" as="geometry" />
        </mxCell>
        <mxCell id="kb-qz8heGwgcF6jkPhP3-243" value="в этом окне пользователь будет&amp;nbsp;&lt;br&gt;описывать задачу и&lt;br&gt;указывать дату&amp;nbsp;&lt;br&gt;начала и дату&lt;br&gt;выполнения, нажав&lt;br&gt;&amp;nbsp;на кнопку &lt;br&gt;сохранения, задача сохранится&amp;nbsp;&lt;br&gt;а если на кнопку&amp;nbsp;&lt;br&gt;отмены создание&lt;br&gt;&amp;nbsp;будет отменено" style="strokeWidth=1;shadow=0;dashed=0;align=center;html=1;shape=mxgraph.mockup.text.stickyNote2;fontColor=#666666;mainText=;fontSize=17;whiteSpace=wrap;fillColor=#ffffcc;strokeColor=#F62E00;" vertex="1" parent="1">
          <mxGeometry x="-470" y="-410" width="200" height="330" as="geometry" />
        </mxCell>
        <mxCell id="kb-qz8heGwgcF6jkPhP3-244" value="" style="endArrow=classic;html=1;rounded=0;entryX=0.004;entryY=0.49;entryDx=0;entryDy=0;entryPerimeter=0;" edge="1" parent="1" target="oyIsUULw6MFd0Sz0c1CN-6">
          <mxGeometry width="50" height="50" relative="1" as="geometry">
            <mxPoint x="-1960" y="-10" as="sourcePoint" />
            <mxPoint x="-2000" y="-40" as="targetPoint" />
            <Array as="points">
              <mxPoint x="-1960" y="251" />
            </Array>
          </mxGeometry>
        </mxCell>
        <mxCell id="kb-qz8heGwgcF6jkPhP3-247" value="" style="endArrow=none;html=1;rounded=0;exitX=0.57;exitY=0.957;exitDx=0;exitDy=0;exitPerimeter=0;" edge="1" parent="1" source="kb-qz8heGwgcF6jkPhP3-239">
          <mxGeometry width="50" height="50" relative="1" as="geometry">
            <mxPoint x="-1690" y="150" as="sourcePoint" />
            <mxPoint x="-1500" y="-20" as="targetPoint" />
          </mxGeometry>
        </mxCell>
        <mxCell id="kb-qz8heGwgcF6jkPhP3-248" value="" style="endArrow=classic;html=1;rounded=0;" edge="1" parent="1" source="kb-qz8heGwgcF6jkPhP3-243">
          <mxGeometry width="50" height="50" relative="1" as="geometry">
            <mxPoint x="-390" y="110" as="sourcePoint" />
            <mxPoint x="-360" y="-20" as="targetPoint" />
          </mxGeometry>
        </mxCell>
        <mxCell id="kb-qz8heGwgcF6jkPhP3-249" value="" style="endArrow=classic;html=1;rounded=0;exitX=0.925;exitY=0.582;exitDx=0;exitDy=0;exitPerimeter=0;entryX=-0.007;entryY=0.427;entryDx=0;entryDy=0;entryPerimeter=0;" edge="1" parent="1" source="kb-qz8heGwgcF6jkPhP3-241" target="kb-qz8heGwgcF6jkPhP3-132">
          <mxGeometry width="50" height="50" relative="1" as="geometry">
            <mxPoint x="-1610" y="660" as="sourcePoint" />
            <mxPoint x="-1560" y="610" as="targetPoint" />
          </mxGeometry>
        </mxCell>
        <mxCell id="kb-qz8heGwgcF6jkPhP3-250" value="Описание задачи" style="shape=rect;fillColor=#BDBDBD;strokeColor=none;fontColor=#000000;fontSize=18;fontStyle=0;verticalAlign=top;spacingBottom=0;spacingLeft=0;shadow=0;whiteSpace=wrap;html=1;align=left;" vertex="1" parent="1">
          <mxGeometry x="-460" y="540" width="340" height="380" as="geometry" />
        </mxCell>
        <mxCell id="kb-qz8heGwgcF6jkPhP3-251" value="" style="shape=rect;fillColor=#000000;strokeColor=none;opacity=25;fontColor=#FFFFFF;fontSize=23;fontStyle=0;verticalAlign=top;spacingBottom=0;spacingLeft=16;spacingTop=17;align=left;resizeWidth=1;whiteSpace=wrap;html=1;" vertex="1" parent="kb-qz8heGwgcF6jkPhP3-250">
          <mxGeometry y="1" width="340" height="138" relative="1" as="geometry">
            <mxPoint y="-138" as="offset" />
          </mxGeometry>
        </mxCell>
        <mxCell id="kb-qz8heGwgcF6jkPhP3-252" value="Сохрнанить" style="strokeWidth=1;shadow=0;dashed=0;align=center;html=1;shape=mxgraph.mockup.buttons.button;strokeColor=#666666;fontColor=#ffffff;mainText=;buttonStyle=round;fontSize=17;fontStyle=1;fillColor=#008cff;whiteSpace=wrap;" vertex="1" parent="kb-qz8heGwgcF6jkPhP3-250">
          <mxGeometry x="19.10112359550562" y="340" width="104.10112359550561" height="24" as="geometry" />
        </mxCell>
        <mxCell id="kb-qz8heGwgcF6jkPhP3-253" value="Отмена" style="strokeWidth=1;shadow=0;dashed=0;align=center;html=1;shape=mxgraph.mockup.buttons.button;strokeColor=#666666;fontColor=#ffffff;mainText=;buttonStyle=round;fontSize=17;fontStyle=1;fillColor=#008cff;whiteSpace=wrap;" vertex="1" parent="kb-qz8heGwgcF6jkPhP3-250">
          <mxGeometry x="200.56179775280899" y="340" width="104.10112359550561" height="24" as="geometry" />
        </mxCell>
        <mxCell id="kb-qz8heGwgcF6jkPhP3-254" value="&lt;font color=&quot;#fafafa&quot;&gt;дата создания&lt;/font&gt;" style="text;fontColor=#808080;fontSize=16;verticalAlign=middle;strokeColor=none;fillColor=none;opacity=50;whiteSpace=wrap;html=1;" vertex="1" parent="kb-qz8heGwgcF6jkPhP3-250">
          <mxGeometry x="9.55056179775281" y="250" width="248.31460674157304" height="30" as="geometry" />
        </mxCell>
        <mxCell id="kb-qz8heGwgcF6jkPhP3-255" value="" style="dashed=0;shape=line;strokeWidth=2;noLabel=1;strokeColor=#0C8CF2;opacity=50;" vertex="1" parent="kb-qz8heGwgcF6jkPhP3-250">
          <mxGeometry x="9.55" y="275" width="310.45" height="10" as="geometry" />
        </mxCell>
        <mxCell id="kb-qz8heGwgcF6jkPhP3-256" value="&lt;font color=&quot;#fafafa&quot;&gt;дата дедлайна&lt;/font&gt;" style="text;fontColor=#808080;fontSize=16;verticalAlign=middle;strokeColor=none;fillColor=none;opacity=50;whiteSpace=wrap;html=1;" vertex="1" parent="kb-qz8heGwgcF6jkPhP3-250">
          <mxGeometry x="9.55056179775281" y="290" width="248.31460674157304" height="30" as="geometry" />
        </mxCell>
        <mxCell id="kb-qz8heGwgcF6jkPhP3-257" value="" style="dashed=0;shape=line;strokeWidth=2;noLabel=1;strokeColor=#0C8CF2;opacity=50;" vertex="1" parent="kb-qz8heGwgcF6jkPhP3-250">
          <mxGeometry x="9.55" y="320" width="310.45" height="10" as="geometry" />
        </mxCell>
        <mxCell id="kb-qz8heGwgcF6jkPhP3-260" value="при нажатии на кнопку&amp;nbsp;&lt;br&gt;редактировать - будет&amp;nbsp;&lt;br&gt;создаваться и вызываться&amp;nbsp;&lt;br&gt;окно с параметрами выбранной&amp;nbsp;&lt;br&gt;задачи, и пользователь&amp;nbsp;&lt;br&gt;сможет его редактировать" style="strokeWidth=1;shadow=0;dashed=0;align=center;html=1;shape=mxgraph.mockup.text.stickyNote2;fontColor=#666666;mainText=;fontSize=17;whiteSpace=wrap;fillColor=#ffffcc;strokeColor=#F62E00;" vertex="1" parent="1">
          <mxGeometry x="100" y="565" width="300" height="330" as="geometry" />
        </mxCell>
        <mxCell id="kb-qz8heGwgcF6jkPhP3-261" value="" style="endArrow=classic;html=1;rounded=0;entryX=1;entryY=0.5;entryDx=0;entryDy=0;" edge="1" parent="1" source="kb-qz8heGwgcF6jkPhP3-260" target="kb-qz8heGwgcF6jkPhP3-250">
          <mxGeometry width="50" height="50" relative="1" as="geometry">
            <mxPoint x="-60" y="800" as="sourcePoint" />
            <mxPoint x="-10" y="750" as="targetPoint" />
          </mxGeometry>
        </mxCell>
        <mxCell id="kb-qz8heGwgcF6jkPhP3-263" value="Вы уверены, что хотите удалить выбранные задачи?" style="strokeWidth=1;shadow=0;dashed=0;align=center;html=1;shape=mxgraph.mockup.containers.rrect;rSize=0;strokeColor=#666666;fontColor=#666666;fontSize=17;verticalAlign=top;whiteSpace=wrap;fillColor=#ffffff;spacingTop=32;" vertex="1" parent="1">
          <mxGeometry x="-360" y="1270" width="250" height="140" as="geometry" />
        </mxCell>
        <mxCell id="kb-qz8heGwgcF6jkPhP3-264" value="Предупреждение!" style="strokeWidth=1;shadow=0;dashed=0;align=center;html=1;shape=mxgraph.mockup.containers.rrect;rSize=0;fontSize=17;fontColor=#666666;strokeColor=#666666;align=left;spacingLeft=8;fillColor=none;resizeWidth=1;whiteSpace=wrap;" vertex="1" parent="kb-qz8heGwgcF6jkPhP3-263">
          <mxGeometry width="250" height="30" relative="1" as="geometry" />
        </mxCell>
        <mxCell id="kb-qz8heGwgcF6jkPhP3-265" value="" style="shape=ellipse;strokeColor=#008cff;resizable=0;fillColor=none;html=1;" vertex="1" parent="kb-qz8heGwgcF6jkPhP3-264">
          <mxGeometry x="1" y="0.5" width="20" height="20" relative="1" as="geometry">
            <mxPoint x="-25" y="-10" as="offset" />
          </mxGeometry>
        </mxCell>
        <mxCell id="kb-qz8heGwgcF6jkPhP3-266" value="отмена" style="strokeWidth=1;shadow=0;dashed=0;align=center;html=1;shape=mxgraph.mockup.containers.rrect;rSize=0;fontSize=16;fontColor=#666666;strokeColor=#c4c4c4;whiteSpace=wrap;fillColor=none;" vertex="1" parent="kb-qz8heGwgcF6jkPhP3-263">
          <mxGeometry x="0.25" y="1" width="90" height="25" relative="1" as="geometry">
            <mxPoint x="78" y="-40" as="offset" />
          </mxGeometry>
        </mxCell>
        <mxCell id="kb-qz8heGwgcF6jkPhP3-267" value="ОК" style="strokeWidth=1;shadow=0;dashed=0;align=center;html=1;shape=mxgraph.mockup.containers.rrect;rSize=0;fontSize=16;fontColor=#666666;strokeColor=#c4c4c4;whiteSpace=wrap;fillColor=none;" vertex="1" parent="kb-qz8heGwgcF6jkPhP3-263">
          <mxGeometry x="0.75" y="1" width="90" height="25" relative="1" as="geometry">
            <mxPoint x="-167" y="-40" as="offset" />
          </mxGeometry>
        </mxCell>
        <mxCell id="kb-qz8heGwgcF6jkPhP3-269" value="&lt;br&gt;При нажатии на&amp;nbsp;&lt;br&gt;кнопку удаления,&amp;nbsp;&lt;br&gt;выскочит окно с предупреждением" style="strokeWidth=1;shadow=0;dashed=0;align=center;html=1;shape=mxgraph.mockup.text.stickyNote2;fontColor=#666666;mainText=;fontSize=17;whiteSpace=wrap;fillColor=#ffffcc;strokeColor=#F62E00;" vertex="1" parent="1">
          <mxGeometry y="1240" width="200" height="200" as="geometry" />
        </mxCell>
        <mxCell id="kb-qz8heGwgcF6jkPhP3-270" value="" style="endArrow=classic;html=1;rounded=0;entryX=1.004;entryY=0.543;entryDx=0;entryDy=0;entryPerimeter=0;" edge="1" parent="1" target="kb-qz8heGwgcF6jkPhP3-263">
          <mxGeometry width="50" height="50" relative="1" as="geometry">
            <mxPoint x="10" y="1346" as="sourcePoint" />
            <mxPoint x="-80" y="1280" as="targetPoint" />
          </mxGeometry>
        </mxCell>
      </root>
    </mxGraphModel>
  </diagram>
</mxfile>
